<svg width="24" height="24" viewBox="0 0 24 24" fill="none" xmlns="http://www.w3.org/2000/svg">
<path d="M12 4.18855e-05C10.674 4.18855e-05 9.40304 0.220042 8.21304 0.613042C13.153 -0.629958 16.788 2.33304 19.309 6.21904C21.034 8.91404 22.122 9.04904 23.516 8.63104C22.794 6.13708 21.2797 3.94594 19.2021 2.38881C17.1245 0.831671 14.5964 -0.00682849 12 4.18855e-05ZM7.65804 2.15604C6.01404 2.17504 4.36304 2.93104 2.72704 4.36304C0.956942 6.51376 -0.00746205 9.21458 4.34804e-05 12C0.184043 9.17704 2.16304 6.87204 4.87004 6.93004C6.97404 6.97404 9.51804 8.44804 12 12.219C16.87 19.687 22.917 17.702 23.863 13.729C23.944 13.163 24 12.589 24 12C24 11.824 23.98 11.653 23.973 11.479C22.328 13.204 19.074 13.829 15.709 8.50904C13.119 4.14604 10.398 2.12604 7.65804 2.15604ZM3.33004 13.236C1.65504 13.366 0.673044 15.04 1.08804 16.992C2.0399 19.0862 3.5757 20.8612 5.51121 22.1042C7.44672 23.3473 9.69976 24.0055 12 24C16.215 24 19.898 21.851 22.037 18.588V18.545C19.201 22.035 13.091 22.8 8.18204 16.363C6.36804 13.977 4.63804 13.135 3.33004 13.236Z" fill="black"/>
</svg>
